<svg xmlns="http://www.w3.org/2000/svg" viewBox="0 0 16 16" role="img" aria-label="Twitter">
  <path fill="#1da1f2" d="M5.026 15c6.038 0 9.341-5.003 9.341-9.334 0-.142-.003-.284-.01-.425A6.685 6.685 0 0 0 16 3.542a6.658 6.658 0 0 1-1.889.518 3.301 3.301 0 0 0 1.447-1.817 6.575 6.575 0 0 1-2.087.793A3.286 3.286 0 0 0 7.875 6.03 9.322 9.322 0 0 1 1.108 2.6a3.286 3.286 0 0 0 1.017 4.383A3.323 3.323 0 0 1 .64 6.575v.041a3.287 3.287 0 0 0 2.633 3.22 3.203 3.203 0 0 1-.865.115c-.211 0-.417-.021-.617-.059a3.289 3.289 0 0 0 3.067 2.281A6.593 6.593 0 0 1 .78 13.58c-.265 0-.526-.015-.78-.046A9.294 9.294 0 0 0 5.026 15z"/>
</svg>
